<svg xmlns="http://www.w3.org/2000/svg" viewBox="0 0 679.4 88.6" enable-background="new 0 0 679.4 88.6"><path d="M660.1 25.7v12.3h-2.1v-12.3h-4.1v-1.8h10.4v1.8h-4.2zm17.2 12.3v-10.5l-4.2 10.5h-.7l-4.2-10.5v10.5h-2.1v-14.1h2.6l4.1 10.6 4.1-10.6h2.5v14.1h-2.1zM168.7 63c0-13.7-8.5-20.3-17.9-22.4 10.2-2.9 14.3-10 14.3-18.4-.1-16.2-11.8-22.2-26.4-22.2h-34.6v88.6h29c17.9 0 35.6-2.8 35.6-25.6zm-12.9-40.7c0 11.8-9.3 14.7-19.4 14.7h-23.2v-28.7h24.4c9.5 0 18.2 2.8 18.2 14zm3.7 41.1c0 15.1-12 16.9-23.7 16.9h-22.6v-35.2h23.3c11.6 0 23 4.3 23 18.3zM224.3 54.4c0-16.9-8.3-32-26.9-32-15.1 0-27.5 12.1-27.5 32.6 0 21.3 11.7 33.4 27.8 33.4 12.1 0 20.2-5.7 25.1-12.7l-5.9-4.5c-5.7 7.3-11.6 9.4-18.7 9.4-13.5 0-18.9-11.7-19.2-23.4h45c.2-.9.3-1.7.3-2.8zm-8.8-4.4h-36.3c1.3-12.9 8.3-19.9 18.2-19.9 11.9 0 17.1 9 18.1 19.9zM254.2 32.5v-7.3h-14.3v-24.8h-8.4v24.8h-10.1v7.3h10.1v39.6c0 8.6.7 16 11.5 16 4.2 0 7.4-.9 10.7-2.6v-8c-3 1.7-5.3 3-8.4 3-3.7 0-5.4-1.7-5.4-7.3v-40.7h14.3zM281.4 32.5v-7.3h-14.3v-24.8h-8.4v24.8h-10.1v7.3h10.1v39.6c0 8.6.7 16 11.5 16 4.2 0 7.4-.9 10.7-2.6v-8c-3 1.7-5.3 3-8.4 3-3.7 0-5.4-1.7-5.4-7.3v-40.7h14.3zM333.2 54.4c0-16.9-8.3-32-26.9-32-15.1 0-27.5 12.1-27.5 32.6 0 21.3 11.7 33.4 27.8 33.4 12.1 0 20.2-5.7 25.1-12.7l-5.9-4.5c-5.7 7.3-11.6 9.4-18.7 9.4-13.5 0-18.9-11.7-19.2-23.4h45c.2-.9.3-1.7.3-2.8zm-8.8-4.4h-36.4c1.3-12.9 8.3-19.9 18.2-19.9 12 0 17.2 9 18.2 19.9zM373.9 25.5c-2.6-.9-5.4-1.3-8.8-1.3-9.2 0-15.1 4.7-18.2 10.2v-8.9h-8.7v63.1h8.7v-32.5c0-12 4.2-24.2 16.3-24.2 2.1 0 4.7.4 7.4 1.3l3.3-7.7zM470.1.7h-9.1l-16.8 74.5-19.9-74.5h-8.2l-19.5 74.5-17.1-74.5h-9.4l21.9 87.9h8.6l19.5-73.6 19.7 73.6h8.9l21.4-87.9zM518.3 55c0-19-10.2-32.6-27.9-32.6-17.8 0-28.1 14.4-28.1 33.4 0 19.7 11 32.6 27.9 32.6 19 0 28.2-16.2 28.1-33.4zm-9 .5c0 15.6-6.9 25.2-19.1 25.2-10.9 0-18.9-7.9-18.9-25.1 0-12.5 4.5-25.7 19.1-25.7 15.3 0 19 15.3 18.9 25.6zM557.3 25.5c-2.6-.9-5.4-1.3-8.8-1.3-9.2 0-15.1 4.7-18.2 10.2v-8.9h-8.7v63.1h8.7v-32.5c0-12 4.2-24.2 16.3-24.2 2.1 0 4.7.4 7.4 1.3l3.3-7.7zM609.7 88.6l-24-39.5 21.5-23.6h-10.4l-28.9 32.7v-58.2h-8.7v88.6h8.7v-19l12-13.8 19.8 32.8h10zM650.9 70.3c0-9.2-5.7-14.9-21.5-20.2-10.1-3.4-13.4-5.9-13.4-11.1 0-5.7 4.5-8.9 12.1-8.9 6.1 0 11.1 2.3 15.5 7.4l6.4-4.5c-6.4-7.2-13-10.5-21.8-10.5-13.2 0-20.7 7.6-20.7 16.9 0 7.7 5 14 16.9 17.8 15.3 4.8 17.9 8.4 17.9 13.5 0 5.5-3.5 10.2-13.1 10.2-7.3 0-12.4-3.1-16-9.7l-6.4 4.9c5 8.4 12.4 12.5 22.3 12.5 13.6-.1 21.8-7.8 21.8-18.3z"/><path fill-rule="evenodd" clip-rule="evenodd" d="M8.3.1c4.6 0 8.3 3.7 8.3 8.3 0 4.6-3.7 8.3-8.3 8.3s-8.3-3.6-8.3-8.2c0-4.7 3.7-8.4 8.3-8.4zM32.1.1c4.6 0 8.3 3.7 8.3 8.3 0 4.6-3.7 8.3-8.3 8.3s-8.3-3.7-8.3-8.3c0-4.6 3.7-8.3 8.3-8.3zM55.9.1c4.6 0 8.3 3.7 8.3 8.3 0 4.6-3.7 8.3-8.3 8.3s-8.3-3.7-8.3-8.3c0-4.6 3.7-8.3 8.3-8.3zM79.7.1c4.6 0 8.3 3.7 8.3 8.3 0 4.6-3.7 8.3-8.3 8.3s-8.3-3.7-8.3-8.3c0-4.6 3.7-8.3 8.3-8.3z"/><path fill-rule="evenodd" clip-rule="evenodd" fill="#5BC0DE" d="M8.3 23.9c4.6 0 8.3 3.7 8.3 8.3 0 4.6-3.7 8.3-8.3 8.3s-8.3-3.6-8.3-8.2 3.7-8.4 8.3-8.4zM32.1 23.9c4.6 0 8.3 3.7 8.3 8.3 0 4.6-3.7 8.3-8.3 8.3s-8.3-3.7-8.3-8.3c0-4.5 3.7-8.3 8.3-8.3zM55.9 23.9c4.6 0 8.3 3.7 8.3 8.3 0 4.6-3.7 8.3-8.3 8.3s-8.3-3.7-8.3-8.3c0-4.5 3.7-8.3 8.3-8.3z"/><path fill-rule="evenodd" clip-rule="evenodd" d="M79.7 23.9c4.6 0 8.3 3.7 8.3 8.3 0 4.6-3.7 8.3-8.3 8.3s-8.3-3.7-8.3-8.3c0-4.5 3.7-8.3 8.3-8.3zM8.3 47.7c4.6 0 8.3 3.7 8.3 8.3 0 4.6-3.7 8.3-8.3 8.3s-8.3-3.6-8.3-8.2 3.7-8.4 8.3-8.4zM32.1 47.7c4.6 0 8.3 3.7 8.3 8.3 0 4.6-3.7 8.3-8.3 8.3s-8.3-3.7-8.3-8.3c0-4.5 3.7-8.3 8.3-8.3z"/><path fill-rule="evenodd" clip-rule="evenodd" fill="#5BC0DE" d="M55.9 47.7c4.6 0 8.3 3.7 8.3 8.3 0 4.6-3.7 8.3-8.3 8.3s-8.3-3.7-8.3-8.3c0-4.5 3.7-8.3 8.3-8.3z"/><path fill-rule="evenodd" clip-rule="evenodd" d="M79.7 47.7c4.6 0 8.3 3.7 8.3 8.3 0 4.6-3.7 8.3-8.3 8.3s-8.3-3.7-8.3-8.3c0-4.5 3.7-8.3 8.3-8.3zM8.3 71.5c4.6 0 8.3 3.7 8.3 8.3 0 4.6-3.7 8.3-8.3 8.3s-8.3-3.6-8.3-8.2 3.7-8.4 8.3-8.4zM32.1 71.5c4.6 0 8.3 3.7 8.3 8.3 0 4.6-3.7 8.3-8.3 8.3s-8.3-3.7-8.3-8.3c0-4.5 3.7-8.3 8.3-8.3z"/><path fill-rule="evenodd" clip-rule="evenodd" fill="#5BC0DE" d="M55.9 71.5c4.6 0 8.3 3.7 8.3 8.3 0 4.6-3.7 8.3-8.3 8.3s-8.3-3.7-8.3-8.3c0-4.5 3.7-8.3 8.3-8.3z"/><path fill-rule="evenodd" clip-rule="evenodd" d="M79.7 71.5c4.6 0 8.3 3.7 8.3 8.3 0 4.6-3.7 8.3-8.3 8.3s-8.3-3.7-8.3-8.3c0-4.5 3.7-8.3 8.3-8.3z"/></svg>